<svg width="488" height="386" viewBox="0 0 488 386" fill="none" xmlns="http://www.w3.org/2000/svg">
<path d="M68.1031 230.277L68.1037 230.264C68.8828 215.72 69.2734 195.568 69.2734 169.797C69.2734 144.014 69.2083 126.903 69.0783 118.453L69.0781 118.441V118.43C69.0781 109.842 69.013 102.955 68.8833 97.7641M68.1031 230.277L70.3828 97.7266M68.1031 230.277C67.7814 237.482 66.7387 243.062 65.0447 247.097C63.7931 250.078 62.2167 252.151 60.3594 253.45V230.539C60.3594 210.806 60.164 195.21 59.7726 183.759C59.3835 172.38 58.7985 164.931 57.9708 161.621L57.968 161.609L57.965 161.598C57.3304 159.218 55.6985 157.153 53.3141 155.364C51.7154 154.165 49.7405 153.061 47.4088 152.043M68.1031 230.277L45.4472 152.85C46.1248 152.597 46.7788 152.328 47.4088 152.043M68.8833 97.7641L70.3828 97.7266M68.8833 97.7641C68.8833 97.7643 68.8833 97.7645 68.8833 97.7647L70.3828 97.7266M68.8833 97.7641C68.6887 90.1127 68.2193 84.0363 67.4861 79.5094C67.1195 77.246 66.6918 75.4011 66.2125 73.9555C65.7276 72.4932 65.2186 71.5288 64.7383 70.9525L64.7167 70.9266L64.6964 70.8998C63.1463 68.8603 61.6981 67.3355 60.3584 66.2693M70.3828 97.7266C69.9922 82.362 68.4948 73.1172 65.8906 69.9922C63.9682 67.4627 62.1244 65.6015 60.3593 64.4086C60.3591 65.0326 60.3589 65.6528 60.3584 66.2693M60.3584 66.2693C59.8424 65.8586 59.3424 65.5159 58.859 65.2381C58.8397 109.501 58.0586 134.719 56.5156 140.891C54.8927 145.528 51.2055 148.978 45.4541 151.241C46.1311 151.502 46.7828 151.77 47.4088 152.043M60.3584 66.2693C60.3433 87.6382 60.1482 104.521 59.7728 116.913C59.5771 123.368 59.3322 128.616 59.037 132.65C58.7443 136.651 58.3964 139.552 57.9708 141.254L57.9541 141.321L57.9314 141.386C56.2691 146.136 52.6784 149.658 47.4088 152.043M113.484 201.367C123.99 203.713 134.103 204.891 143.82 204.891C167.431 204.891 189.715 198.159 210.646 184.731C220.94 178.132 230.043 169.952 237.953 160.196C246.012 150.288 251.773 139.568 255.218 128.039C258.496 117.072 264.956 108.931 274.63 103.528L276.917 102.251L274.657 100.925C265.152 95.3485 259.264 88.2767 256.787 79.7392C250.312 56.359 237.021 37.5191 216.955 23.2621C207.316 16.3956 196.497 11.0549 184.51 7.23488C172.477 3.39999 158.253 1.5 141.867 1.5C125.847 1.5 111.364 4.16429 98.4422 9.52213C91.7149 5.47021 84.1721 3.45312 75.8516 3.45312C67.6994 3.45312 60.2069 5.50971 53.4062 9.62421C46.8663 5.51308 39.6891 3.45312 31.9062 3.45312C23.9778 3.45312 16.8684 5.33737 10.6226 9.13808C7.86311 10.7945 5.61872 12.8186 3.92299 15.2209L3.90553 15.2456L3.88908 15.2711C2.30179 17.7242 1.5 20.4154 1.5 23.3125C1.5 26.0982 2.31357 28.6239 3.93883 30.8402L4.84846 32.0806L6.06561 31.1401C8.61319 29.1715 11.9149 28.1328 16.0859 28.1328C21.6626 28.1328 26.2709 29.3375 29.9873 31.664C33.6237 33.9405 36.5074 37.3542 38.6094 41.9921V124.094C38.6094 130.09 36.5415 135.474 32.3381 140.296L32.3271 140.308L32.3164 140.321C29.9537 143.156 24.5179 146.62 15.659 150.659L12.7819 151.97L15.6178 153.369C25.0477 158.019 31.5276 162.656 35.2333 167.226L35.248 167.244L35.2632 167.262C37.3984 169.734 38.6094 173.734 38.6094 179.562V274.746C36.51 279.316 33.6297 282.681 29.9947 284.927C26.2771 287.224 21.666 288.414 16.0859 288.414C11.9149 288.414 8.61319 287.375 6.06561 285.407L4.84846 284.466L3.93883 285.707C2.30337 287.937 1.5 290.532 1.5 293.43C1.5 299.183 4.71982 303.838 10.616 307.405C13.4943 309.185 16.822 310.538 20.5803 311.48C24.4034 312.569 29.1689 313.094 34.8359 313.094C40.6949 313.094 46.8894 311.047 53.3936 307.104C60.0874 311.103 67.5857 313.094 75.8516 313.094C84.263 313.094 91.9016 311.033 98.7304 306.896C106.016 311.022 113.762 313.094 121.945 313.094C130.374 313.094 138.163 311.22 145.287 307.459C148.544 305.829 151.188 303.829 153.165 301.434C155.3 299.007 156.453 296.33 156.453 293.43C156.453 290.532 155.65 287.937 154.014 285.707L153.105 284.466L151.888 285.407C149.277 287.424 146.408 288.414 143.234 288.414C139.809 288.414 136.733 288.097 133.996 287.475L133.987 287.473L133.978 287.471C123.481 285.221 116.789 280.583 113.484 273.756V201.367ZM122.705 168.64L122.701 168.637C116.558 163.6 113.484 156.939 113.484 148.508V59.4453C113.484 50.0808 116.768 42.92 123.268 37.7694C126.232 35.4226 129.636 33.6862 133.496 32.5655L133.511 32.5613L133.526 32.5567C137.497 31.3155 142.607 30.6719 148.898 30.6719C155.005 30.6719 161.205 32.9869 167.522 37.788L167.533 37.7964C174.293 42.8358 177.672 49.7353 177.672 58.6641V146.945C177.672 152.213 176.606 156.559 174.558 160.054L174.556 160.057C168.484 170.465 158.67 175.719 144.797 175.719C135.696 175.719 128.373 173.323 122.705 168.64ZM199.695 157.038L199.69 157.048L199.685 157.059C198.151 160.383 196.67 162.855 195.259 164.536C194.932 164.926 194.615 165.265 194.309 165.559C194.476 164.88 194.654 164.124 194.843 163.295C195.531 160.281 196.397 156.164 197.44 150.95C199.553 140.385 200.594 124.77 200.594 104.172C200.594 88.7087 199.991 75.7237 198.777 65.2301C197.825 56.9991 196.492 50.2405 194.75 45.0002C194.932 45.1758 195.117 45.3652 195.305 45.5693C196.708 47.0913 198.182 49.3204 199.711 52.315L199.717 52.3262L199.723 52.3372C202.865 58.2458 205.633 67.6293 207.969 80.6095L207.97 80.6121C210.071 92.1697 214.857 100.168 222.528 104.147C218.464 106.138 215.338 109.019 213.218 112.807C210.616 117.332 208.498 124.305 206.798 133.589L206.796 133.598L206.795 133.606C205.251 142.613 202.878 150.417 199.695 157.038Z" fill="#F9FAB4" stroke="black" stroke-width="3"/>
<path d="M435.028 325.102L435.023 325.112L435.018 325.123C432.104 331.966 428.133 337.496 423.122 341.756C418.08 346.042 412.211 349.201 405.496 351.228L405.489 351.23C398.872 353.266 391.795 354.289 384.25 354.289C376.735 354.289 369.894 353.08 363.709 350.684C354.149 346.82 347.05 340.95 342.322 333.092C337.583 325.215 335.164 315.231 335.164 303.055V254.812C335.164 247.236 336.898 240.804 340.301 235.451C343.705 230.097 348.841 225.727 355.8 222.375L358.744 220.956L355.748 219.649C348.785 216.61 343.662 212.588 340.274 207.628C336.889 202.675 335.164 196.682 335.164 189.578V150.125C335.164 141.129 336.257 133.352 338.409 126.768C341.712 116.859 346.911 109.538 353.95 104.68C360.996 99.8157 370.02 97.3281 381.125 97.3281C394.129 97.3281 404.851 100.764 413.395 107.55L413.405 107.558L413.415 107.565C417.181 110.452 420.029 113.685 421.999 117.256C423.955 120.8 425.079 124.998 425.33 129.889C425.56 134.369 423.532 138.502 418.849 142.322L418.845 142.325C411.881 148.046 404.702 149.7 397.168 147.513L395.834 147.125L395.346 148.426C394.896 149.625 394.664 150.845 394.664 152.078V152.121L394.667 152.164C394.972 157.503 399.065 162.094 405.961 166.073L405.984 166.086L406.007 166.098C410.218 168.335 415.198 168.939 420.853 168.052C420.972 168.656 421.031 169.256 421.031 169.852V169.883L421.033 169.914C421.28 175.843 419.742 180.967 416.448 185.358L415.63 186.45L416.639 187.368C418.492 189.052 421.051 189.594 424.014 189.316C437.149 188.52 447.425 182.086 454.767 170.209C458.54 171.827 462.185 172.434 465.671 171.929C474.043 171.23 480.398 167.402 484.56 160.467L485.416 159.04L483.908 158.336C482.033 157.461 480.514 156.544 479.328 155.594L479.298 155.571L479.267 155.548C477.959 154.606 476.613 152.777 475.322 149.818C474.043 146.886 472.881 142.991 471.851 138.097L471.849 138.089L471.847 138.081C467.35 117.846 457.473 101.775 442.199 89.9544L442.193 89.9496C425.213 76.9495 403.845 70.5 378.195 70.5C351.925 70.5 328.866 76.3475 309.071 88.0923C299.713 93.6283 291.402 100.223 284.143 107.877C276.898 115.386 270.642 123.685 265.374 132.771L265.371 132.777C260.238 141.726 256.094 151.2 252.937 161.197C249.788 171.169 247.618 180.827 246.434 190.171L246.433 190.18L246.432 190.189C245.409 199.138 243.059 206.091 239.483 211.156C237.355 213.983 233.39 216.844 227.364 219.665L224.54 220.987L227.336 222.368C237.748 227.513 244.245 238.879 246.432 257.134C251.016 297.863 264.528 329.405 287.105 351.586L287.108 351.589C309.296 373.248 337.617 384.047 371.945 384.047C400.75 384.047 424.866 376.148 444.187 360.268L444.195 360.262C452.94 352.974 459.715 344.478 464.5 334.775C469.398 324.978 471.883 315.506 471.883 306.375C471.883 297.241 470.039 290.182 466.067 285.493C462.21 280.786 456.667 278.508 449.68 278.508C442.834 278.508 437.774 280.388 435.291 284.732L434.821 285.556L435.363 286.334C438.116 290.284 439.586 295.992 439.586 303.641C439.586 311.113 438.068 318.262 435.028 325.102ZM289.712 307.953L289.716 307.963C292.45 314.082 293.688 318.314 293.688 320.828C293.688 321.545 293.513 322.057 293.234 322.447C293.094 322.643 292.908 322.835 292.663 323.017C289.911 319.447 287.421 315.495 285.194 311.159L285.187 311.146L285.18 311.133C281.632 304.543 278.347 294.578 275.363 281.147C272.383 267.738 269.721 250.964 267.381 230.811C267.125 228.599 265.766 226.608 263.698 224.82C262.209 223.533 260.281 222.288 257.941 221.075C260.268 219.949 262.188 218.773 263.675 217.539C265.754 215.812 267.122 213.851 267.38 211.63C270.239 188.114 274.063 169.55 278.83 155.893L278.832 155.887C281.266 148.83 285.291 141.67 290.942 134.41C291.057 134.499 291.145 134.59 291.213 134.679C291.396 134.918 291.539 135.278 291.539 135.867C291.539 137.34 291.134 139.638 290.239 142.844C282.888 164.391 279.234 190.463 279.234 221.023C279.234 262.813 282.671 291.88 289.712 307.953Z" fill="#F9FAB4" stroke="black" stroke-width="3"/>
</svg>
